<?xml version="1.0" standalone="no"?><!DOCTYPE svg PUBLIC "-//W3C//DTD SVG 1.1//EN" "http://www.w3.org/Graphics/SVG/1.1/DTD/svg11.dtd"><svg height="32" node-id="1" sillyvg="true" template-height="32" template-width="32" version="1.1" viewBox="0 0 32 32" width="32" xmlns="http://www.w3.org/2000/svg" xmlns:xlink="http://www.w3.org/1999/xlink"><defs node-id="248"><linearGradient gradientUnits="objectBoundingBox" id="paint8_linear_18_17387" node-id="147" spreadMethod="pad" x1="23.2057" x2="5.5403" y1="20.5799" y2="24.7001"><stop offset="0" stop-color="#ffbc5d"></stop><stop offset="0.303505" stop-color="#fcad6a"></stop><stop offset="1" stop-color="#cb7547"></stop></linearGradient><linearGradient gradientUnits="objectBoundingBox" id="paint10_linear_18_17387" node-id="154" spreadMethod="pad" x1="5.28125" x2="8" y1="24.2782" y2="23.7157"><stop offset="0" stop-color="#c2794c"></stop><stop offset="1" stop-color="#e07648" stop-opacity="0"></stop></linearGradient><linearGradient gradientUnits="objectBoundingBox" id="paint11_linear_18_17387" node-id="157" spreadMethod="pad" x1="26.625" x2="22" y1="26.0282" y2="24.9657"><stop offset="0.128534" stop-color="#ffbb5b"></stop><stop offset="1" stop-color="#ffbb5b" stop-opacity="0"></stop></linearGradient><linearGradient gradientUnits="objectBoundingBox" id="paint12_linear_18_17387" node-id="160" spreadMethod="pad" x1="17.4375" x2="17.4375" y1="28.8719" y2="27.6844"><stop offset="0.184212" stop-color="#ff6f8c"></stop><stop offset="1" stop-color="#ff7a6a" stop-opacity="0"></stop></linearGradient><linearGradient gradientUnits="objectBoundingBox" id="paint31_linear_18_17387" node-id="217" spreadMethod="pad" x1="16.2109" x2="22.5547" y1="9.1532" y2="17.1532"><stop offset="0" stop-color="#ffd678"></stop><stop offset="1" stop-color="#ffd678" stop-opacity="0"></stop></linearGradient><radialGradient cx="0" cy="0" fx="0" fy="0" gradientUnits="objectBoundingBox" id="paint0_radial_18_17387" node-id="123" r="1" rev="36" spreadMethod="pad"><stop offset="0" stop-color="#395de0"></stop><stop offset="1" stop-color="#2c68a3"></stop></radialGradient><radialGradient cx="0" cy="0" fx="0" fy="0" gradientUnits="objectBoundingBox" id="paint1_radial_18_17387" node-id="126" r="1" rev="35" spreadMethod="pad"><stop offset="0.248616" stop-color="#3db3f3"></stop><stop offset="1" stop-color="#5b73f4"></stop></radialGradient><radialGradient cx="0" cy="0" fx="0" fy="0" gradientUnits="objectBoundingBox" id="paint2_radial_18_17387" node-id="129" r="1" rev="34" spreadMethod="pad"><stop offset="0.257996" stop-color="#5fbeff"></stop><stop offset="1" stop-color="#5fbeff" stop-opacity="0"></stop></radialGradient><radialGradient cx="0" cy="0" fx="0" fy="0" gradientUnits="objectBoundingBox" id="paint3_radial_18_17387" node-id="132" r="1" rev="33" spreadMethod="pad"><stop offset="0" stop-color="#fbc96e"></stop><stop offset="1" stop-color="#fac567"></stop></radialGradient><radialGradient cx="0" cy="0" fx="0" fy="0" gradientUnits="objectBoundingBox" id="paint4_radial_18_17387" node-id="135" r="1" rev="32" spreadMethod="pad"><stop offset="0.765376" stop-color="#d89f3a" stop-opacity="0"></stop><stop offset="0.91124" stop-color="#daa139"></stop></radialGradient><radialGradient cx="0" cy="0" fx="0" fy="0" gradientUnits="objectBoundingBox" id="paint5_radial_18_17387" node-id="138" r="1" rev="31" spreadMethod="pad"><stop offset="0.254227" stop-color="#bf812a"></stop><stop offset="1" stop-color="#ce9333"></stop></radialGradient><radialGradient cx="0" cy="0" fx="0" fy="0" gradientUnits="objectBoundingBox" id="paint6_radial_18_17387" node-id="141" r="1" rev="30" spreadMethod="pad"><stop offset="0.734364" stop-color="#e9bb61" stop-opacity="0"></stop><stop offset="0.929116" stop-color="#e9bb61"></stop></radialGradient><radialGradient cx="0" cy="0" fx="0" fy="0" gradientUnits="objectBoundingBox" id="paint7_radial_18_17387" node-id="144" r="1" rev="29" spreadMethod="pad"><stop offset="0.772711" stop-color="#c18739" stop-opacity="0"></stop><stop offset="0.948485" stop-color="#c18739"></stop></radialGradient><radialGradient cx="0" cy="0" fx="0" fy="0" gradientUnits="objectBoundingBox" id="paint9_radial_18_17387" node-id="151" r="1" rev="28" spreadMethod="pad"><stop offset="0" stop-color="#f67b4e"></stop><stop offset="1" stop-color="#f67b4e" stop-opacity="0"></stop></radialGradient><radialGradient cx="0" cy="0" fx="0" fy="0" gradientUnits="objectBoundingBox" id="paint13_radial_18_17387" node-id="163" r="1" rev="27" spreadMethod="pad"><stop offset="0.377231" stop-color="#dd9049"></stop><stop offset="1" stop-color="#f8bf60" stop-opacity="0"></stop></radialGradient><radialGradient cx="0" cy="0" fx="0" fy="0" gradientUnits="objectBoundingBox" id="paint14_radial_18_17387" node-id="166" r="1" rev="26" spreadMethod="pad"><stop offset="0.195602" stop-color="#d7783d"></stop><stop offset="1" stop-color="#d7783d" stop-opacity="0"></stop></radialGradient><radialGradient cx="0" cy="0" fx="0" fy="0" gradientUnits="objectBoundingBox" id="paint15_radial_18_17387" node-id="169" r="1" rev="25" spreadMethod="pad"><stop offset="0.382465" stop-color="#d48c33"></stop><stop offset="1" stop-color="#feb16a" stop-opacity="0"></stop></radialGradient><radialGradient cx="0" cy="0" fx="0" fy="0" gradientUnits="objectBoundingBox" id="paint16_radial_18_17387" node-id="172" r="1" rev="24" spreadMethod="pad"><stop offset="0" stop-color="#ff196c"></stop><stop offset="1" stop-color="#ff1f4a"></stop></radialGradient><radialGradient cx="0" cy="0" fx="0" fy="0" gradientUnits="objectBoundingBox" id="paint17_radial_18_17387" node-id="175" r="1" rev="23" spreadMethod="pad"><stop offset="0.222789" stop-color="#ff5873"></stop><stop offset="1" stop-color="#ff5873" stop-opacity="0"></stop></radialGradient><radialGradient cx="0" cy="0" fx="0" fy="0" gradientUnits="objectBoundingBox" id="paint18_radial_18_17387" node-id="178" r="1" rev="22" spreadMethod="pad"><stop offset="0" stop-color="#f6196c"></stop><stop offset="1" stop-color="#e42047"></stop></radialGradient><radialGradient cx="0" cy="0" fx="0" fy="0" gradientUnits="objectBoundingBox" id="paint19_radial_18_17387" node-id="181" r="1" rev="21" spreadMethod="pad"><stop offset="0" stop-color="#fe536f"></stop><stop offset="1" stop-color="#fe536f" stop-opacity="0"></stop></radialGradient><radialGradient cx="0" cy="0" fx="0" fy="0" gradientUnits="objectBoundingBox" id="paint20_radial_18_17387" node-id="184" r="1" rev="20" spreadMethod="pad"><stop offset="0.172433" stop-color="#e7c04e"></stop><stop offset="1" stop-color="#d9972a"></stop></radialGradient><radialGradient cx="0" cy="0" fx="0" fy="0" gradientUnits="objectBoundingBox" id="paint21_radial_18_17387" node-id="187" r="1" rev="19" spreadMethod="pad"><stop offset="0.0645976" stop-color="#df8089"></stop><stop offset="1" stop-color="#df8089" stop-opacity="0"></stop></radialGradient><radialGradient cx="0" cy="0" fx="0" fy="0" gradientUnits="objectBoundingBox" id="paint22_radial_18_17387" node-id="190" r="1" rev="18" spreadMethod="pad"><stop offset="0" stop-color="#ffde71"></stop><stop offset="1" stop-color="#ffde71" stop-opacity="0"></stop></radialGradient><radialGradient cx="0" cy="0" fx="0" fy="0" gradientUnits="objectBoundingBox" id="paint23_radial_18_17387" node-id="193" r="1" rev="17" spreadMethod="pad"><stop offset="0.487603" stop-color="#e1ad3d" stop-opacity="0"></stop><stop offset="1" stop-color="#b9894b"></stop></radialGradient><radialGradient cx="0" cy="0" fx="0" fy="0" gradientUnits="objectBoundingBox" id="paint24_radial_18_17387" node-id="196" r="1" rev="16" spreadMethod="pad"><stop offset="0.172433" stop-color="#e7c04e"></stop><stop offset="1" stop-color="#d9972a"></stop></radialGradient><radialGradient cx="0" cy="0" fx="0" fy="0" gradientUnits="objectBoundingBox" id="paint25_radial_18_17387" node-id="199" r="1" rev="15" spreadMethod="pad"><stop offset="0" stop-color="#ffde71"></stop><stop offset="1" stop-color="#ffde71" stop-opacity="0"></stop></radialGradient><radialGradient cx="0" cy="0" fx="0" fy="0" gradientUnits="objectBoundingBox" id="paint26_radial_18_17387" node-id="202" r="1" rev="14" spreadMethod="pad"><stop offset="0" stop-color="#e4a122"></stop><stop offset="1" stop-color="#e4a122" stop-opacity="0"></stop></radialGradient><radialGradient cx="0" cy="0" fx="0" fy="0" gradientUnits="objectBoundingBox" id="paint27_radial_18_17387" node-id="205" r="1" rev="13" spreadMethod="pad"><stop offset="0.487603" stop-color="#e1ad3d" stop-opacity="0"></stop><stop offset="1" stop-color="#b9894b"></stop></radialGradient><radialGradient cx="0" cy="0" fx="0" fy="0" gradientUnits="objectBoundingBox" id="paint28_radial_18_17387" node-id="208" r="1" rev="12" spreadMethod="pad"><stop offset="0.172433" stop-color="#f0c950"></stop><stop offset="1" stop-color="#c8861f"></stop></radialGradient><radialGradient cx="0" cy="0" fx="0" fy="0" gradientUnits="objectBoundingBox" id="paint29_radial_18_17387" node-id="211" r="1" rev="11" spreadMethod="pad"><stop offset="0.183948" stop-color="#ffde71"></stop><stop offset="1" stop-color="#ffde71" stop-opacity="0"></stop></radialGradient><radialGradient cx="0" cy="0" fx="0" fy="0" gradientUnits="objectBoundingBox" id="paint30_radial_18_17387" node-id="214" r="1" rev="10" spreadMethod="pad"><stop offset="0" stop-color="#5fbfff"></stop><stop offset="1" stop-color="#3e94ff"></stop></radialGradient><radialGradient cx="0" cy="0" fx="0" fy="0" gradientUnits="objectBoundingBox" id="paint32_radial_18_17387" node-id="220" r="1" rev="9" spreadMethod="pad"><stop offset="0.289296" stop-color="#ffd175"></stop><stop offset="1" stop-color="#ffd175" stop-opacity="0"></stop></radialGradient><radialGradient cx="0" cy="0" fx="0" fy="0" gradientUnits="objectBoundingBox" id="paint33_radial_18_17387" node-id="223" r="1" rev="8" spreadMethod="pad"><stop offset="0.376296" stop-color="#f3d154"></stop><stop offset="1" stop-color="#cc9848"></stop></radialGradient><radialGradient cx="0" cy="0" fx="0" fy="0" gradientUnits="objectBoundingBox" id="paint34_radial_18_17387" node-id="226" r="1" rev="7" spreadMethod="pad"><stop offset="0" stop-color="#e78f5e"></stop><stop offset="1" stop-color="#e78f5e" stop-opacity="0"></stop></radialGradient><radialGradient cx="0" cy="0" fx="0" fy="0" gradientUnits="objectBoundingBox" id="paint35_radial_18_17387" node-id="229" r="1" rev="6" spreadMethod="pad"><stop offset="0.557117" stop-color="#e9c251" stop-opacity="0"></stop><stop offset="1" stop-color="#b49858"></stop></radialGradient><radialGradient cx="0" cy="0" fx="0" fy="0" gradientUnits="objectBoundingBox" id="paint36_radial_18_17387" node-id="232" r="1" rev="5" spreadMethod="pad"><stop offset="0" stop-color="#ffed77"></stop><stop offset="1" stop-color="#ffed77" stop-opacity="0"></stop></radialGradient><radialGradient cx="0" cy="0" fx="0" fy="0" gradientUnits="objectBoundingBox" id="paint37_radial_18_17387" node-id="235" r="1" rev="4" spreadMethod="pad"><stop offset="0.172433" stop-color="#f8cb54"></stop><stop offset="1" stop-color="#eaa34b"></stop></radialGradient><radialGradient cx="0" cy="0" fx="0" fy="0" gradientUnits="objectBoundingBox" id="paint38_radial_18_17387" node-id="238" r="1" rev="3" spreadMethod="pad"><stop offset="0.159577" stop-color="#f1907c"></stop><stop offset="1" stop-color="#f1907c" stop-opacity="0"></stop></radialGradient><radialGradient cx="0" cy="0" fx="0" fy="0" gradientUnits="objectBoundingBox" id="paint39_radial_18_17387" node-id="241" r="1" rev="2" spreadMethod="pad"><stop offset="0" stop-color="#ffde71"></stop><stop offset="1" stop-color="#ffde71" stop-opacity="0"></stop></radialGradient><radialGradient cx="0" cy="0" fx="0" fy="0" gradientUnits="objectBoundingBox" id="paint40_radial_18_17387" node-id="244" r="1" rev="1" spreadMethod="pad"><stop offset="0.487603" stop-color="#e0a444" stop-opacity="0"></stop><stop offset="1" stop-color="#c6924d"></stop></radialGradient><filter filterUnits="objectBoundingBox" height="19.8578" id="filter0_ii_18_17387" node-id="50" width="26.55" x="2.725" y="8.73289"><feFlood color-interpolation-filters="sRGB" flood-color="#000000" flood-opacity="0" result="BackgroundImageFix"></feFlood><feBlend color-interpolation-filters="sRGB" in="SourceGraphic" in2="BackgroundImageFix" mode="normal" result="shape"></feBlend><feColorMatrix color-interpolation-filters="sRGB" in="SourceAlpha" result="hardAlpha" type="matrix" values="0 0 0 0 0 0 0 0 0 0 0 0 0 0 0 0 0 0 127 0"></feColorMatrix><feOffset color-interpolation-filters="sRGB" dx="0.4" dy="-0.1" in="hardAlpha" result="result4"></feOffset><feGaussianBlur color-interpolation-filters="sRGB" in="result4" result="result5" stdDeviation="0.25 0.25"></feGaussianBlur><feComposite color-interpolation-filters="sRGB" in="result5" in2="hardAlpha" k1="0" k2="-1" k3="1" k4="0" operator="arithmetic" result="result6"></feComposite><feColorMatrix color-interpolation-filters="sRGB" in="result6" result="result7" type="matrix" values="0 0 0 0 0.803922 0 0 0 0 0.580392 0 0 0 0 0.262745 0 0 0 1 0"></feColorMatrix><feBlend color-interpolation-filters="sRGB" in="result7" in2="shape" mode="normal" result="effect1_innerShadow_18_17387"></feBlend><feColorMatrix color-interpolation-filters="sRGB" in="SourceAlpha" result="hardAlpha" type="matrix" values="0 0 0 0 0 0 0 0 0 0 0 0 0 0 0 0 0 0 127 0"></feColorMatrix><feOffset color-interpolation-filters="sRGB" dx="-0.4" dy="-0.1" in="hardAlpha" result="result10"></feOffset><feGaussianBlur color-interpolation-filters="sRGB" in="result10" result="result11" stdDeviation="0.25 0.25"></feGaussianBlur><feComposite color-interpolation-filters="sRGB" in="result11" in2="hardAlpha" k1="0" k2="-1" k3="1" k4="0" operator="arithmetic" result="result12"></feComposite><feColorMatrix color-interpolation-filters="sRGB" in="result12" result="result13" type="matrix" values="0 0 0 0 0.894118 0 0 0 0 0.686275 0 0 0 0 0.301961 0 0 0 1 0"></feColorMatrix><feBlend color-interpolation-filters="sRGB" in="result13" in2="effect1_innerShadow_18_17387" mode="normal" result="effect2_innerShadow_18_17387"></feBlend></filter><filter filterUnits="objectBoundingBox" height="4.49609" id="filter1_di_18_17387" node-id="65" width="4.2299805" x="20.1318" y="20.2845"><feFlood color-interpolation-filters="sRGB" flood-color="#000000" flood-opacity="0" result="BackgroundImageFix"></feFlood><feColorMatrix color-interpolation-filters="sRGB" in="SourceAlpha" result="hardAlpha" type="matrix" values="0 0 0 0 0 0 0 0 0 0 0 0 0 0 0 0 0 0 127 0"></feColorMatrix><feOffset color-interpolation-filters="sRGB" dx="-0.25" dy="0.25" in="hardAlpha" result="result3"></feOffset><feGaussianBlur color-interpolation-filters="sRGB" in="result3" result="result4" stdDeviation="0.375 0.375"></feGaussianBlur><feComposite color-interpolation-filters="sRGB" in="result4" in2="hardAlpha" operator="out" result="result5"></feComposite><feColorMatrix color-interpolation-filters="sRGB" in="result5" result="result6" type="matrix" values="0 0 0 0 1 0 0 0 0 0.54902 0 0 0 0 0.305882 0 0 0 1 0"></feColorMatrix><feBlend color-interpolation-filters="sRGB" in="result6" in2="BackgroundImageFix" mode="normal" result="effect1_dropShadow_18_17387"></feBlend><feBlend color-interpolation-filters="sRGB" in="SourceGraphic" in2="effect1_dropShadow_18_17387" mode="normal" result="shape"></feBlend><feColorMatrix color-interpolation-filters="sRGB" in="SourceAlpha" result="hardAlpha" type="matrix" values="0 0 0 0 0 0 0 0 0 0 0 0 0 0 0 0 0 0 127 0"></feColorMatrix><feOffset color-interpolation-filters="sRGB" dx="0.15" dy="-0.15" in="hardAlpha" result="result10"></feOffset><feGaussianBlur color-interpolation-filters="sRGB" in="result10" result="result11" stdDeviation="0.25 0.25"></feGaussianBlur><feComposite color-interpolation-filters="sRGB" in="result11" in2="hardAlpha" k1="0" k2="-1" k3="1" k4="0" operator="arithmetic" result="result12"></feComposite><feColorMatrix color-interpolation-filters="sRGB" in="result12" result="result13" type="matrix" values="0 0 0 0 0.984314 0 0 0 0 0.219608 0 0 0 0 0.254902 0 0 0 1 0"></feColorMatrix><feBlend color-interpolation-filters="sRGB" in="result13" in2="shape" mode="normal" result="effect2_innerShadow_18_17387"></feBlend></filter><filter filterUnits="objectBoundingBox" height="4.49609" id="filter2_di_18_17387" node-id="80" width="4.22998" x="7.2146" y="20.2845"><feFlood color-interpolation-filters="sRGB" flood-color="#000000" flood-opacity="0" result="BackgroundImageFix"></feFlood><feColorMatrix color-interpolation-filters="sRGB" in="SourceAlpha" result="hardAlpha" type="matrix" values="0 0 0 0 0 0 0 0 0 0 0 0 0 0 0 0 0 0 127 0"></feColorMatrix><feOffset color-interpolation-filters="sRGB" dx="-0.25" dy="0.25" in="hardAlpha" result="result3"></feOffset><feGaussianBlur color-interpolation-filters="sRGB" in="result3" result="result4" stdDeviation="0.375 0.375"></feGaussianBlur><feComposite color-interpolation-filters="sRGB" in="result4" in2="hardAlpha" operator="out" result="result5"></feComposite><feColorMatrix color-interpolation-filters="sRGB" in="result5" result="result6" type="matrix" values="0 0 0 0 0.905882 0 0 0 0 0.439216 0 0 0 0 0.278431 0 0 0 1 0"></feColorMatrix><feBlend color-interpolation-filters="sRGB" in="result6" in2="BackgroundImageFix" mode="normal" result="effect1_dropShadow_18_17387"></feBlend><feBlend color-interpolation-filters="sRGB" in="SourceGraphic" in2="effect1_dropShadow_18_17387" mode="normal" result="shape"></feBlend><feColorMatrix color-interpolation-filters="sRGB" in="SourceAlpha" result="hardAlpha" type="matrix" values="0 0 0 0 0 0 0 0 0 0 0 0 0 0 0 0 0 0 127 0"></feColorMatrix><feOffset color-interpolation-filters="sRGB" dx="0.3" dy="0.3" in="hardAlpha" result="result10"></feOffset><feGaussianBlur color-interpolation-filters="sRGB" in="result10" result="result11" stdDeviation="0.3 0.3"></feGaussianBlur><feComposite color-interpolation-filters="sRGB" in="result11" in2="hardAlpha" k1="0" k2="-1" k3="1" k4="0" operator="arithmetic" result="result12"></feComposite><feColorMatrix color-interpolation-filters="sRGB" in="result12" result="result13" type="matrix" values="0 0 0 0 0.796078 0 0 0 0 0.141176 0 0 0 0 0.223529 0 0 0 1 0"></feColorMatrix><feBlend color-interpolation-filters="sRGB" in="result13" in2="shape" mode="normal" result="effect2_innerShadow_18_17387"></feBlend></filter><filter filterUnits="objectBoundingBox" height="2.6760302" id="filter3_i_18_17387" node-id="95" width="2.78125" x="21.0312" y="9.58875"><feFlood color-interpolation-filters="sRGB" flood-color="#000000" flood-opacity="0" result="BackgroundImageFix"></feFlood><feBlend color-interpolation-filters="sRGB" in="SourceGraphic" in2="BackgroundImageFix" mode="normal" result="shape"></feBlend><feColorMatrix color-interpolation-filters="sRGB" in="SourceAlpha" result="hardAlpha" type="matrix" values="0 0 0 0 0 0 0 0 0 0 0 0 0 0 0 0 0 0 127 0"></feColorMatrix><feOffset color-interpolation-filters="sRGB" dx="0" dy="0" in="hardAlpha" result="result4"></feOffset><feGaussianBlur color-interpolation-filters="sRGB" in="result4" result="result5" stdDeviation="0.125 0.125"></feGaussianBlur><feComposite color-interpolation-filters="sRGB" in="result5" in2="hardAlpha" k1="0" k2="-1" k3="1" k4="0" operator="arithmetic" result="result6"></feComposite><feColorMatrix color-interpolation-filters="sRGB" in="result6" result="result7" type="matrix" values="0 0 0 0 0.756863 0 0 0 0 0.619608 0 0 0 0 0.321569 0 0 0 1 0"></feColorMatrix><feBlend color-interpolation-filters="sRGB" in="result7" in2="shape" mode="normal" result="effect1_innerShadow_18_17387"></feBlend></filter><filter filterUnits="objectBoundingBox" height="7.435789" id="filter4_di_18_17387" node-id="104" width="7.43579" x="11.8203" y="19.108"><feFlood color-interpolation-filters="sRGB" flood-color="#000000" flood-opacity="0" result="BackgroundImageFix"></feFlood><feColorMatrix color-interpolation-filters="sRGB" in="SourceAlpha" result="hardAlpha" type="matrix" values="0 0 0 0 0 0 0 0 0 0 0 0 0 0 0 0 0 0 127 0"></feColorMatrix><feOffset color-interpolation-filters="sRGB" dx="-0.5" dy="0.5" in="hardAlpha" result="result3"></feOffset><feGaussianBlur color-interpolation-filters="sRGB" in="result3" result="result4" stdDeviation="0.625 0.625"></feGaussianBlur><feComposite color-interpolation-filters="sRGB" in="result4" in2="hardAlpha" operator="out" result="result5"></feComposite><feColorMatrix color-interpolation-filters="sRGB" in="result5" result="result6" type="matrix" values="0 0 0 0 0.937255 0 0 0 0 0.443137 0 0 0 0 0.376471 0 0 0 1 0"></feColorMatrix><feBlend color-interpolation-filters="sRGB" in="result6" in2="BackgroundImageFix" mode="normal" result="effect1_dropShadow_18_17387"></feBlend><feBlend color-interpolation-filters="sRGB" in="SourceGraphic" in2="effect1_dropShadow_18_17387" mode="normal" result="shape"></feBlend><feColorMatrix color-interpolation-filters="sRGB" in="SourceAlpha" result="hardAlpha" type="matrix" values="0 0 0 0 0 0 0 0 0 0 0 0 0 0 0 0 0 0 127 0"></feColorMatrix><feOffset color-interpolation-filters="sRGB" dx="0.75" dy="-0.75" in="hardAlpha" result="result10"></feOffset><feGaussianBlur color-interpolation-filters="sRGB" in="result10" result="result11" stdDeviation="0.75 0.75"></feGaussianBlur><feComposite color-interpolation-filters="sRGB" in="result11" in2="hardAlpha" k1="0" k2="-1" k3="1" k4="0" operator="arithmetic" result="result12"></feComposite><feColorMatrix color-interpolation-filters="sRGB" in="result12" result="result13" type="matrix" values="0 0 0 0 0.313726 0 0 0 0 0.384314 0 0 0 0 1 0 0 0 1 0"></feColorMatrix><feBlend color-interpolation-filters="sRGB" in="result13" in2="shape" mode="normal" result="effect2_innerShadow_18_17387"></feBlend></filter><filter filterUnits="objectBoundingBox" height="7.0976095" id="filter5_f_18_17387" node-id="119" width="11.4755" x="16.0519" y="9.1274"><feFlood color-interpolation-filters="sRGB" flood-color="#000000" flood-opacity="0" result="BackgroundImageFix"></feFlood><feBlend color-interpolation-filters="sRGB" in="SourceGraphic" in2="BackgroundImageFix" mode="normal" result="shape"></feBlend><feGaussianBlur color-interpolation-filters="sRGB" in="shape" result="effect1_foregroundBlur_18_17387" stdDeviation="0.075 0.075"></feGaussianBlur></filter></defs><path d="M 6.93 22.25 C 6.93 23.11 6.24 23.80 5.38 23.80 C 4.52 23.80 3.83 23.11 3.83 22.25 C 3.83 21.39 4.52 20.70 5.38 20.70 C 6.24 20.70 6.93 21.39 6.93 22.25 Z" fill="url(#paint0_radial_18_17387)" fill-rule="nonzero" node-id="645" stroke="none" target-height="3.1015587" target-width="3.1015604" target-x="3.82813" target-y="20.70012"></path><path d="M 28.18 22.26 C 28.18 23.12 27.49 23.81 26.63 23.81 C 25.78 23.81 25.08 23.12 25.08 22.26 C 25.08 21.41 25.78 20.71 26.63 20.71 C 27.49 20.71 28.18 21.41 28.18 22.26 Z" fill="url(#paint1_radial_18_17387)" fill-rule="nonzero" node-id="647" stroke="none" target-height="3.1015587" target-width="3.1015587" target-x="25.08202" target-y="20.71182"></path><path d="M 28.18 22.26 C 28.18 23.12 27.49 23.81 26.63 23.81 C 25.78 23.81 25.08 23.12 25.08 22.26 C 25.08 21.41 25.78 20.71 26.63 20.71 C 27.49 20.71 28.18 21.41 28.18 22.26 Z" fill="url(#paint2_radial_18_17387)" fill-rule="nonzero" node-id="649" stroke="none" target-height="3.1015587" target-width="3.1015587" target-x="25.08202" target-y="20.71182"></path><path d="M 9.01 12.08 C 8.41 12.98 7.97 14.21 7.82 14.68 L 10.16 16.36 L 11.95 14.10 C 11.74 13.77 11.24 13.05 10.95 12.67 C 10.67 12.30 10.23 11.84 10.05 11.66 L 9.01 12.08 Z" fill="url(#paint3_radial_18_17387)" fill-rule="nonzero" node-id="651" stroke="none" target-height="4.707" target-width="4.1327906" target-x="7.8203106" target-y="11.6571"></path><path d="M 9.01 12.08 C 8.41 12.98 7.97 14.21 7.82 14.68 L 10.16 16.36 L 11.95 14.10 C 11.74 13.77 11.24 13.05 10.95 12.67 C 10.67 12.30 10.23 11.84 10.05 11.66 L 9.01 12.08 Z" fill="url(#paint4_radial_18_17387)" fill-rule="nonzero" node-id="653" stroke="none" target-height="4.707" target-width="4.1327906" target-x="7.8203106" target-y="11.6571"></path><path d="M 22.99 12.08 C 23.59 12.98 24.03 14.21 24.18 14.68 L 21.84 16.36 L 20.05 14.10 C 20.26 13.77 20.76 13.05 21.05 12.67 C 21.33 12.30 21.77 11.84 21.95 11.66 L 22.99 12.08 Z" fill="url(#paint5_radial_18_17387)" fill-rule="nonzero" node-id="655" stroke="none" target-height="4.707" target-width="4.132801" target-x="20.0469" target-y="11.6571"></path><path d="M 22.99 12.08 C 23.59 12.98 24.03 14.21 24.18 14.68 L 21.84 16.36 L 20.05 14.10 C 20.26 13.77 20.76 13.05 21.05 12.67 C 21.33 12.30 21.77 11.84 21.95 11.66 L 22.99 12.08 Z" fill="url(#paint6_radial_18_17387)" fill-rule="nonzero" node-id="657" stroke="none" target-height="4.707" target-width="4.132801" target-x="20.0469" target-y="11.6571"></path><path d="M 22.99 12.08 C 23.59 12.98 24.03 14.21 24.18 14.68 L 21.84 16.36 L 20.05 14.10 C 20.26 13.77 20.76 13.05 21.05 12.67 C 21.33 12.30 21.77 11.84 21.95 11.66 L 22.99 12.08 Z" fill="url(#paint7_radial_18_17387)" fill-rule="nonzero" node-id="659" stroke="none" target-height="4.707" target-width="4.132801" target-x="20.0469" target-y="11.6571"></path><g node-id="745"><path d="M 3.12 12.15 L 6.23 27.31 C 6.38 28.06 7.04 28.59 7.80 28.59 L 24.20 28.59 C 24.96 28.59 25.62 28.06 25.77 27.31 L 28.88 12.15 L 27.88 11.67 C 26.40 12.75 23.29 14.96 22.49 15.44 C 21.85 15.83 21.26 15.20 21.14 15.02 C 20.02 13.38 18.32 10.99 17.68 10.15 C 17.03 9.29 16.29 8.87 16.00 8.83 C 15.71 8.87 14.97 9.29 14.32 10.15 C 13.68 10.99 11.98 13.38 10.86 15.02 C 10.74 15.20 10.15 15.83 9.51 15.44 C 8.71 14.96 5.60 12.75 4.12 11.67 L 3.12 12.15 Z" fill="url(#paint8_linear_18_17387)" fill-rule="nonzero" filter="url(#filter0_ii_18_17387)" group-id="1" node-id="663" stroke="none" target-height="19.75781" target-width="25.75" target-x="3.125" target-y="8.83289"></path><path d="M 3.12 12.15 L 6.23 27.31 C 6.38 28.06 7.04 28.59 7.80 28.59 L 24.20 28.59 C 24.96 28.59 25.62 28.06 25.77 27.31 L 28.88 12.15 L 27.88 11.67 C 26.40 12.75 23.29 14.96 22.49 15.44 C 21.85 15.83 21.26 15.20 21.14 15.02 C 20.02 13.38 18.32 10.99 17.68 10.15 C 17.03 9.29 16.29 8.87 16.00 8.83 C 15.71 8.87 14.97 9.29 14.32 10.15 C 13.68 10.99 11.98 13.38 10.86 15.02 C 10.74 15.20 10.15 15.83 9.51 15.44 C 8.71 14.96 5.60 12.75 4.12 11.67 L 3.12 12.15 Z" fill="url(#paint9_radial_18_17387)" fill-rule="nonzero" filter="url(#filter0_ii_18_17387)" group-id="1" node-id="665" stroke="none" target-height="19.75781" target-width="25.75" target-x="3.125" target-y="8.83289"></path></g><path d="M 3.12 12.15 L 6.23 27.31 C 6.38 28.06 7.04 28.59 7.80 28.59 L 24.20 28.59 C 24.96 28.59 25.62 28.06 25.77 27.31 L 28.88 12.15 L 27.88 11.67 C 26.40 12.75 23.29 14.96 22.49 15.44 C 21.85 15.83 21.26 15.20 21.14 15.02 C 20.02 13.38 18.32 10.99 17.68 10.15 C 17.03 9.29 16.29 8.87 16.00 8.83 C 15.71 8.87 14.97 9.29 14.32 10.15 C 13.68 10.99 11.98 13.38 10.86 15.02 C 10.74 15.20 10.15 15.83 9.51 15.44 C 8.71 14.96 5.60 12.75 4.12 11.67 L 3.12 12.15 Z" fill="url(#paint10_linear_18_17387)" fill-rule="nonzero" node-id="668" stroke="none" target-height="19.75781" target-width="25.75" target-x="3.125" target-y="8.83289"></path><path d="M 3.12 12.15 L 6.23 27.31 C 6.38 28.06 7.04 28.59 7.80 28.59 L 24.20 28.59 C 24.96 28.59 25.62 28.06 25.77 27.31 L 28.88 12.15 L 27.88 11.67 C 26.40 12.75 23.29 14.96 22.49 15.44 C 21.85 15.83 21.26 15.20 21.14 15.02 C 20.02 13.38 18.32 10.99 17.68 10.15 C 17.03 9.29 16.29 8.87 16.00 8.83 C 15.71 8.87 14.97 9.29 14.32 10.15 C 13.68 10.99 11.98 13.38 10.86 15.02 C 10.74 15.20 10.15 15.83 9.51 15.44 C 8.71 14.96 5.60 12.75 4.12 11.67 L 3.12 12.15 Z" fill="url(#paint11_linear_18_17387)" fill-rule="nonzero" node-id="670" stroke="none" target-height="19.75781" target-width="25.75" target-x="3.125" target-y="8.83289"></path><path d="M 3.12 12.15 L 6.23 27.31 C 6.38 28.06 7.04 28.59 7.80 28.59 L 24.20 28.59 C 24.96 28.59 25.62 28.06 25.77 27.31 L 28.88 12.15 L 27.88 11.67 C 26.40 12.75 23.29 14.96 22.49 15.44 C 21.85 15.83 21.26 15.20 21.14 15.02 C 20.02 13.38 18.32 10.99 17.68 10.15 C 17.03 9.29 16.29 8.87 16.00 8.83 C 15.71 8.87 14.97 9.29 14.32 10.15 C 13.68 10.99 11.98 13.38 10.86 15.02 C 10.74 15.20 10.15 15.83 9.51 15.44 C 8.71 14.96 5.60 12.75 4.12 11.67 L 3.12 12.15 Z" fill="url(#paint12_linear_18_17387)" fill-rule="nonzero" node-id="672" stroke="none" target-height="19.75781" target-width="25.75" target-x="3.125" target-y="8.83289"></path><path d="M 3.12 12.15 L 6.23 27.31 C 6.38 28.06 7.04 28.59 7.80 28.59 L 24.20 28.59 C 24.96 28.59 25.62 28.06 25.77 27.31 L 28.88 12.15 L 27.88 11.67 C 26.40 12.75 23.29 14.96 22.49 15.44 C 21.85 15.83 21.26 15.20 21.14 15.02 C 20.02 13.38 18.32 10.99 17.68 10.15 C 17.03 9.29 16.29 8.87 16.00 8.83 C 15.71 8.87 14.97 9.29 14.32 10.15 C 13.68 10.99 11.98 13.38 10.86 15.02 C 10.74 15.20 10.15 15.83 9.51 15.44 C 8.71 14.96 5.60 12.75 4.12 11.67 L 3.12 12.15 Z" fill="url(#paint13_radial_18_17387)" fill-rule="nonzero" node-id="674" stroke="none" target-height="19.75781" target-width="25.75" target-x="3.125" target-y="8.83289"></path><path d="M 3.12 12.15 L 6.23 27.31 C 6.38 28.06 7.04 28.59 7.80 28.59 L 24.20 28.59 C 24.96 28.59 25.62 28.06 25.77 27.31 L 28.88 12.15 L 27.88 11.67 C 26.40 12.75 23.29 14.96 22.49 15.44 C 21.85 15.83 21.26 15.20 21.14 15.02 C 20.02 13.38 18.32 10.99 17.68 10.15 C 17.03 9.29 16.29 8.87 16.00 8.83 C 15.71 8.87 14.97 9.29 14.32 10.15 C 13.68 10.99 11.98 13.38 10.86 15.02 C 10.74 15.20 10.15 15.83 9.51 15.44 C 8.71 14.96 5.60 12.75 4.12 11.67 L 3.12 12.15 Z" fill="url(#paint14_radial_18_17387)" fill-rule="nonzero" node-id="676" stroke="none" target-height="19.75781" target-width="25.75" target-x="3.125" target-y="8.83289"></path><path d="M 3.12 12.15 L 6.23 27.31 C 6.38 28.06 7.04 28.59 7.80 28.59 L 24.20 28.59 C 24.96 28.59 25.62 28.06 25.77 27.31 L 28.88 12.15 L 27.88 11.67 C 26.40 12.75 23.29 14.96 22.49 15.44 C 21.85 15.83 21.26 15.20 21.14 15.02 C 20.02 13.38 18.32 10.99 17.68 10.15 C 17.03 9.29 16.29 8.87 16.00 8.83 C 15.71 8.87 14.97 9.29 14.32 10.15 C 13.68 10.99 11.98 13.38 10.86 15.02 C 10.74 15.20 10.15 15.83 9.51 15.44 C 8.71 14.96 5.60 12.75 4.12 11.67 L 3.12 12.15 Z" fill="url(#paint15_radial_18_17387)" fill-rule="nonzero" node-id="678" stroke="none" target-height="19.75781" target-width="25.75" target-x="3.125" target-y="8.83289"></path><g node-id="746"><path d="M 23.78 22.74 C 23.51 23.56 22.66 23.97 21.85 23.70 C 21.23 23.45 20.97 22.75 21.23 21.93 C 21.50 21.12 22.33 20.65 22.84 20.82 C 23.65 21.08 24.04 21.93 23.78 22.74 Z" fill="url(#paint16_radial_18_17387)" fill-rule="nonzero" filter="url(#filter1_di_18_17387)" group-id="2" node-id="682" stroke="none" target-height="3.312399" target-width="3.0753002" target-x="20.9692" target-y="20.6528"></path><path d="M 23.78 22.74 C 23.51 23.56 22.66 23.97 21.85 23.70 C 21.23 23.45 20.97 22.75 21.23 21.93 C 21.50 21.12 22.33 20.65 22.84 20.82 C 23.65 21.08 24.04 21.93 23.78 22.74 Z" fill="url(#paint17_radial_18_17387)" fill-rule="nonzero" filter="url(#filter1_di_18_17387)" group-id="2" node-id="684" stroke="none" target-height="3.312399" target-width="3.0753002" target-x="20.9692" target-y="20.6528"></path></g><g node-id="747"><path d="M 8.30 22.74 C 8.56 23.56 9.41 23.97 10.23 23.70 C 10.84 23.45 11.11 22.75 10.84 21.93 C 10.58 21.12 9.74 20.65 9.24 20.82 C 8.42 21.08 8.03 21.93 8.30 22.74 Z" fill="url(#paint18_radial_18_17387)" fill-rule="nonzero" filter="url(#filter2_di_18_17387)" group-id="3" node-id="689" stroke="none" target-height="3.312399" target-width="3.0752401" target-x="8.03196" target-y="20.6528"></path><path d="M 8.30 22.74 C 8.56 23.56 9.41 23.97 10.23 23.70 C 10.84 23.45 11.11 22.75 10.84 21.93 C 10.58 21.12 9.74 20.65 9.24 20.82 C 8.42 21.08 8.03 21.93 8.30 22.74 Z" fill="url(#paint19_radial_18_17387)" fill-rule="nonzero" filter="url(#filter2_di_18_17387)" group-id="3" node-id="691" stroke="none" target-height="3.312399" target-width="3.0752401" target-x="8.03196" target-y="20.6528"></path></g><path d="M 4.92 11.92 C 4.92 12.69 4.30 13.32 3.53 13.32 C 2.76 13.32 2.14 12.69 2.14 11.92 C 2.14 11.16 2.76 10.53 3.53 10.53 C 4.30 10.53 4.92 11.16 4.92 11.92 Z" fill="url(#paint20_radial_18_17387)" fill-rule="nonzero" node-id="694" stroke="none" target-height="2.7812004" target-width="2.7812502" target-x="2.14062" target-y="10.5341"></path><path d="M 4.92 11.92 C 4.92 12.69 4.30 13.32 3.53 13.32 C 2.76 13.32 2.14 12.69 2.14 11.92 C 2.14 11.16 2.76 10.53 3.53 10.53 C 4.30 10.53 4.92 11.16 4.92 11.92 Z" fill="url(#paint21_radial_18_17387)" fill-rule="nonzero" node-id="696" stroke="none" target-height="2.7812004" target-width="2.7812502" target-x="2.14062" target-y="10.5341"></path><path d="M 4.92 11.92 C 4.92 12.69 4.30 13.32 3.53 13.32 C 2.76 13.32 2.14 12.69 2.14 11.92 C 2.14 11.16 2.76 10.53 3.53 10.53 C 4.30 10.53 4.92 11.16 4.92 11.92 Z" fill="url(#paint22_radial_18_17387)" fill-rule="nonzero" node-id="698" stroke="none" target-height="2.7812004" target-width="2.7812502" target-x="2.14062" target-y="10.5341"></path><path d="M 4.92 11.92 C 4.92 12.69 4.30 13.32 3.53 13.32 C 2.76 13.32 2.14 12.69 2.14 11.92 C 2.14 11.16 2.76 10.53 3.53 10.53 C 4.30 10.53 4.92 11.16 4.92 11.92 Z" fill="url(#paint23_radial_18_17387)" fill-rule="nonzero" node-id="700" stroke="none" target-height="2.7812004" target-width="2.7812502" target-x="2.14062" target-y="10.5341"></path><path d="M 10.28 12.18 C 10.69 11.94 10.97 11.49 10.97 10.98 C 10.97 10.21 10.35 9.59 9.58 9.59 C 8.81 9.59 8.19 10.21 8.19 10.98 C 8.19 11.51 8.49 11.97 8.93 12.21 C 9.01 12.17 9.17 12.14 9.34 12.19 C 9.56 12.25 9.91 12.33 10.28 12.18 Z" fill="url(#paint24_radial_18_17387)" fill-rule="nonzero" node-id="702" stroke="none" target-height="2.73915" target-width="2.7812996" target-x="8.1875" target-y="9.58875"></path><path d="M 10.28 12.18 C 10.69 11.94 10.97 11.49 10.97 10.98 C 10.97 10.21 10.35 9.59 9.58 9.59 C 8.81 9.59 8.19 10.21 8.19 10.98 C 8.19 11.51 8.49 11.97 8.93 12.21 C 9.01 12.17 9.17 12.14 9.34 12.19 C 9.56 12.25 9.91 12.33 10.28 12.18 Z" fill="url(#paint25_radial_18_17387)" fill-rule="nonzero" node-id="704" stroke="none" target-height="2.73915" target-width="2.7812996" target-x="8.1875" target-y="9.58875"></path><path d="M 10.28 12.18 C 10.69 11.94 10.97 11.49 10.97 10.98 C 10.97 10.21 10.35 9.59 9.58 9.59 C 8.81 9.59 8.19 10.21 8.19 10.98 C 8.19 11.51 8.49 11.97 8.93 12.21 C 9.01 12.17 9.17 12.14 9.34 12.19 C 9.56 12.25 9.91 12.33 10.28 12.18 Z" fill="url(#paint26_radial_18_17387)" fill-rule="nonzero" node-id="706" stroke="none" target-height="2.73915" target-width="2.7812996" target-x="8.1875" target-y="9.58875"></path><path d="M 10.28 12.18 C 10.69 11.94 10.97 11.49 10.97 10.98 C 10.97 10.21 10.35 9.59 9.58 9.59 C 8.81 9.59 8.19 10.21 8.19 10.98 C 8.19 11.51 8.49 11.97 8.93 12.21 C 9.01 12.17 9.17 12.14 9.34 12.19 C 9.56 12.25 9.91 12.33 10.28 12.18 Z" fill="url(#paint27_radial_18_17387)" fill-rule="nonzero" node-id="708" stroke="none" target-height="2.73915" target-width="2.7812996" target-x="8.1875" target-y="9.58875"></path><g node-id="748"><path d="M 21.72 12.18 C 21.31 11.94 21.03 11.49 21.03 10.98 C 21.03 10.21 21.65 9.59 22.42 9.59 C 23.19 9.59 23.81 10.21 23.81 10.98 C 23.81 11.51 23.51 11.97 23.07 12.21 C 22.99 12.17 22.83 12.14 22.66 12.19 C 22.44 12.25 22.09 12.33 21.72 12.18 Z" fill="url(#paint28_radial_18_17387)" fill-rule="nonzero" filter="url(#filter3_i_18_17387)" group-id="4" node-id="712" stroke="none" target-height="2.73915" target-width="2.7812996" target-x="21.0312" target-y="9.58875"></path><path d="M 21.72 12.18 C 21.31 11.94 21.03 11.49 21.03 10.98 C 21.03 10.21 21.65 9.59 22.42 9.59 C 23.19 9.59 23.81 10.21 23.81 10.98 C 23.81 11.51 23.51 11.97 23.07 12.21 C 22.99 12.17 22.83 12.14 22.66 12.19 C 22.44 12.25 22.09 12.33 21.72 12.18 Z" fill="url(#paint29_radial_18_17387)" fill-rule="nonzero" filter="url(#filter3_i_18_17387)" group-id="4" node-id="714" stroke="none" target-height="2.73915" target-width="2.7812996" target-x="21.0312" target-y="9.58875"></path></g><g node-id="749"><path d="M 18.51 22.33 C 18.51 22.98 18.25 23.61 17.78 24.07 C 17.32 24.53 16.69 24.79 16.04 24.79 C 14.68 24.79 13.57 23.69 13.57 22.33 C 13.57 20.96 14.68 19.86 16.04 19.86 C 16.69 19.86 17.32 20.12 17.78 20.58 C 18.25 21.04 18.51 21.67 18.51 22.33 Z" fill="url(#paint30_radial_18_17387)" fill-rule="nonzero" filter="url(#filter4_di_18_17387)" group-id="5" node-id="719" stroke="none" target-height="4.9358215" target-width="4.9358196" target-x="13.5702915" target-y="19.857988"></path></g><g node-id="750"><path d="M 16.21 9.36 C 16.38 9.33 16.82 9.42 17.21 9.95 C 17.60 10.47 19.96 13.83 21.09 15.45 C 21.30 15.79 21.95 16.32 22.79 15.75 C 23.63 15.17 26.32 13.22 27.34 12.54" fill="none" filter="url(#filter5_f_18_17387)" group-id="6" node-id="724" stroke="url(#paint31_linear_18_17387)" stroke-linecap="butt" stroke-width="0.15" target-height="6.9865007" target-width="11.125" target-x="16.2109" target-y="9.3343"></path><path d="M 16.21 9.36 C 16.38 9.33 16.82 9.42 17.21 9.95 C 17.60 10.47 19.96 13.83 21.09 15.45 C 21.30 15.79 21.95 16.32 22.79 15.75 C 23.63 15.17 26.32 13.22 27.34 12.54" fill="none" filter="url(#filter5_f_18_17387)" group-id="6" node-id="726" stroke="url(#paint32_radial_18_17387)" stroke-linecap="butt" stroke-width="0.15" target-height="6.9865007" target-width="11.125" target-x="16.2109" target-y="9.3343"></path></g><path d="M 17.80 7.65 C 17.80 8.64 16.99 9.45 16.00 9.45 C 15.00 9.45 14.20 8.64 14.20 7.65 C 14.20 6.65 15.00 5.84 16.00 5.84 C 16.99 5.84 17.80 6.65 17.80 7.65 Z" fill="url(#paint33_radial_18_17387)" fill-rule="nonzero" node-id="729" stroke="none" target-height="3.60156" target-width="3.6015606" target-x="14.19532" target-y="5.8446097"></path><path d="M 17.80 7.65 C 17.80 8.64 16.99 9.45 16.00 9.45 C 15.00 9.45 14.20 8.64 14.20 7.65 C 14.20 6.65 15.00 5.84 16.00 5.84 C 16.99 5.84 17.80 6.65 17.80 7.65 Z" fill="url(#paint34_radial_18_17387)" fill-rule="nonzero" node-id="731" stroke="none" target-height="3.60156" target-width="3.6015606" target-x="14.19532" target-y="5.8446097"></path><path d="M 17.80 7.65 C 17.80 8.64 16.99 9.45 16.00 9.45 C 15.00 9.45 14.20 8.64 14.20 7.65 C 14.20 6.65 15.00 5.84 16.00 5.84 C 16.99 5.84 17.80 6.65 17.80 7.65 Z" fill="url(#paint35_radial_18_17387)" fill-rule="nonzero" node-id="733" stroke="none" target-height="3.60156" target-width="3.6015606" target-x="14.19532" target-y="5.8446097"></path><path d="M 17.80 7.65 C 17.80 8.64 16.99 9.45 16.00 9.45 C 15.00 9.45 14.20 8.64 14.20 7.65 C 14.20 6.65 15.00 5.84 16.00 5.84 C 16.99 5.84 17.80 6.65 17.80 7.65 Z" fill="url(#paint36_radial_18_17387)" fill-rule="nonzero" node-id="735" stroke="none" target-height="3.60156" target-width="3.6015606" target-x="14.19532" target-y="5.8446097"></path><path d="M 29.92 11.92 C 29.92 12.69 29.30 13.32 28.53 13.32 C 27.76 13.32 27.14 12.69 27.14 11.92 C 27.14 11.16 27.76 10.53 28.53 10.53 C 29.30 10.53 29.92 11.16 29.92 11.92 Z" fill="url(#paint37_radial_18_17387)" fill-rule="nonzero" node-id="737" stroke="none" target-height="2.7812004" target-width="2.7812996" target-x="27.1406" target-y="10.5341"></path><path d="M 29.92 11.92 C 29.92 12.69 29.30 13.32 28.53 13.32 C 27.76 13.32 27.14 12.69 27.14 11.92 C 27.14 11.16 27.76 10.53 28.53 10.53 C 29.30 10.53 29.92 11.16 29.92 11.92 Z" fill="url(#paint38_radial_18_17387)" fill-rule="nonzero" node-id="739" stroke="none" target-height="2.7812004" target-width="2.7812996" target-x="27.1406" target-y="10.5341"></path><path d="M 29.92 11.92 C 29.92 12.69 29.30 13.32 28.53 13.32 C 27.76 13.32 27.14 12.69 27.14 11.92 C 27.14 11.16 27.76 10.53 28.53 10.53 C 29.30 10.53 29.92 11.16 29.92 11.92 Z" fill="url(#paint39_radial_18_17387)" fill-rule="nonzero" node-id="741" stroke="none" target-height="2.7812004" target-width="2.7812996" target-x="27.1406" target-y="10.5341"></path><path d="M 29.92 11.92 C 29.92 12.69 29.30 13.32 28.53 13.32 C 27.76 13.32 27.14 12.69 27.14 11.92 C 27.14 11.16 27.76 10.53 28.53 10.53 C 29.30 10.53 29.92 11.16 29.92 11.92 Z" fill="url(#paint40_radial_18_17387)" fill-rule="nonzero" node-id="743" stroke="none" target-height="2.7812004" target-width="2.7812996" target-x="27.1406" target-y="10.5341"></path></svg>